<?xml version="1.0" encoding="UTF-8"?> <svg xmlns="http://www.w3.org/2000/svg" width="349" height="183" viewBox="0 0 349 183" fill="none"><path d="M49.9852 0V22.7329L22.1907 50.9217H0V92.9776H39.3381L91.4528 40.0099V0H49.9852Z" fill="#000041"></path><path d="M104.678 106.958L92.2377 86.8394V106.958H85.5132V76.2686H93.6946L105.014 94.9096V76.2686H111.739V106.958H104.678Z" fill="#000041"></path><path d="M118.351 106.958V76.2686H137.516V82.7474H125.076V88.5443H136.395V94.5686H125.076V100.479H137.516V106.958H118.351Z" fill="#000041"></path><path d="M177.078 76.2686H184.027L175.845 106.958H168.897L162.509 86.612L156.008 106.958H148.948L140.766 76.2686H147.939L152.982 95.9325L159.258 76.2686H166.207L172.483 95.9325L177.078 76.2686Z" fill="#000041"></path><path d="M85.5132 141.967V111.278H105.014V117.757H92.2377V124.236H103.445V130.487H92.2377V141.967H85.5132Z" fill="#000041"></path><path d="M118.911 130.601H116.557V142.081H109.833V111.391H121.825C127.765 111.391 131.688 115.597 131.688 121.053C131.688 125.258 129.446 128.327 125.748 129.691L131.912 142.081H124.515L118.911 130.601ZM120.48 124.69C123.282 124.69 124.739 123.099 124.739 120.939C124.739 118.666 123.282 117.188 120.48 117.188H116.557V124.576H120.48V124.69Z" fill="#000041"></path><path d="M150.405 110.709C158.922 110.709 166.095 116.961 166.095 126.736C166.095 136.398 158.922 142.649 150.405 142.649C141.887 142.649 134.714 136.398 134.714 126.736C134.602 116.961 141.887 110.709 150.405 110.709ZM150.405 135.943C154.551 135.943 159.146 133.101 159.146 126.736C159.146 120.371 154.663 117.416 150.405 117.416C146.146 117.416 141.663 120.371 141.663 126.736C141.663 133.101 146.146 135.943 150.405 135.943Z" fill="#000041"></path><path d="M190.078 141.967L177.638 121.849V141.967H170.914V111.278H179.095L190.415 129.919V111.278H197.139V141.967H190.078Z" fill="#000041"></path><path d="M217.313 117.87V141.967H210.589V117.87H201.287V111.391H226.727V117.87H217.313Z" fill="#000041"></path><path d="M230.762 141.967V111.278H237.598V141.967H230.762Z" fill="#000041"></path><path d="M244.099 141.967V111.278H263.263V117.757H250.823V123.554H262.143V129.578H250.823V135.488H263.263V141.967H244.099Z" fill="#000041"></path><path d="M278.057 130.601H275.703V142.081H268.979V111.391H280.971C286.91 111.391 290.833 115.597 290.833 121.053C290.833 125.258 288.592 128.327 284.893 129.691L291.057 142.081H283.548L278.057 130.601ZM279.626 124.69C282.427 124.69 283.884 123.099 283.884 120.939C283.884 118.666 282.427 117.188 279.626 117.188H275.703V124.576H279.626V124.69Z" fill="#000041"></path><path d="M310.447 120.598C310.223 119.121 309.102 116.734 305.403 116.734C302.938 116.734 301.257 118.325 301.257 120.03C301.257 121.508 302.153 122.531 304.283 122.985L308.317 123.781C314.033 124.918 317.059 128.668 317.059 132.988C317.059 137.762 313.136 142.649 305.852 142.649C297.446 142.649 293.86 137.193 293.523 132.874L299.688 131.396C299.912 134.238 301.817 136.625 305.964 136.625C308.653 136.625 310.223 135.375 310.223 133.442C310.223 131.851 308.99 130.714 306.972 130.373L302.826 129.578C297.67 128.555 294.644 125.145 294.644 120.598C294.644 114.801 299.688 110.709 305.515 110.709C313.024 110.709 315.938 115.256 316.611 118.893L310.447 120.598Z" fill="#000041"></path><path d="M91.9009 165.723L86.0731 156.516V165.723H83.6074V152.765H86.7455L92.013 161.29V152.765H94.4787V165.723H91.9009Z" fill="#000041"></path><path d="M105.013 162.768H99.7456L98.7369 165.723H96.1592L101.09 152.765H104.004L108.824 165.723H106.134L105.013 162.768ZM100.642 160.381H104.116L102.323 155.493L100.642 160.381Z" fill="#000041"></path><path d="M114.54 155.152V165.723H112.075V155.152H108.04V152.765H118.575V155.152H114.54Z" fill="#000041"></path><path d="M120.369 165.723V152.765H122.834V165.723H120.369Z" fill="#000041"></path><path d="M131.575 152.424C135.049 152.424 138.187 155.038 138.187 159.13C138.187 163.336 135.049 165.837 131.575 165.837C128.101 165.837 125.075 163.222 125.075 159.13C125.075 155.038 128.101 152.424 131.575 152.424ZM131.575 163.45C133.592 163.45 135.61 162.086 135.61 159.13C135.61 156.175 133.592 154.811 131.575 154.811C129.67 154.811 127.652 156.175 127.652 159.13C127.652 162.086 129.67 163.45 131.575 163.45Z" fill="#000041"></path><path d="M148.61 165.723L142.782 156.516V165.723H140.316V152.765H143.455L148.722 161.29V152.765H151.188V165.723H148.61Z" fill="#000041"></path><path d="M161.724 162.768H156.568L155.56 165.723H152.982L157.913 152.765H160.827L165.646 165.723H162.957L161.724 162.768ZM157.353 160.381H160.827L159.034 155.493L157.353 160.381Z" fill="#000041"></path><path d="M167.104 165.723V152.765H169.569V163.336H175.285V165.723H167.104Z" fill="#000041"></path><path d="M183.915 160.835V165.723H181.449V152.765H186.268C188.734 152.765 190.415 154.47 190.415 156.743C190.415 159.13 188.734 160.722 186.268 160.722H183.915V160.835ZM185.932 158.676C187.165 158.676 187.95 157.994 187.95 156.857C187.95 155.72 187.165 155.038 185.932 155.038H183.915V158.789H185.932V158.676Z" fill="#000041"></path><path d="M196.13 160.722H194.785V165.723H192.319V152.765H197.251C199.716 152.765 201.285 154.47 201.285 156.743C201.285 158.562 200.277 159.926 198.596 160.381L201.285 165.723H198.483L196.13 160.722ZM196.802 158.562C198.035 158.562 198.82 157.88 198.82 156.743C198.82 155.607 198.035 154.925 196.802 154.925H194.785V158.562H196.802Z" fill="#000041"></path><path d="M209.243 152.424C212.717 152.424 215.855 155.038 215.855 159.13C215.855 163.336 212.717 165.837 209.243 165.837C205.769 165.837 202.743 163.222 202.743 159.13C202.743 155.038 205.769 152.424 209.243 152.424ZM209.243 163.45C211.26 163.45 213.278 162.086 213.278 159.13C213.278 156.175 211.26 154.811 209.243 154.811C207.338 154.811 205.32 156.175 205.32 159.13C205.32 162.086 207.338 163.45 209.243 163.45Z" fill="#000041"></path><path d="M227.511 165.723L227.399 164.245C226.839 165.154 225.606 165.95 223.588 165.95C220.114 165.95 217.2 163.449 217.2 159.244C217.2 155.038 220.226 152.538 223.701 152.538C227.063 152.538 228.856 154.584 229.528 156.516L227.175 157.425C226.839 156.289 225.83 154.925 223.701 154.925C221.795 154.925 219.666 156.289 219.666 159.357C219.666 162.313 221.571 163.79 223.701 163.79C226.054 163.79 226.951 162.199 227.063 161.29H223.028V159.13H229.416V165.836H227.511V165.723Z" fill="#000041"></path><path d="M235.805 160.722H234.46V165.723H231.995V152.765H236.926C239.392 152.765 240.961 154.47 240.961 156.743C240.961 158.562 239.952 159.926 238.271 160.381L240.961 165.723H238.159L235.805 160.722ZM236.59 158.562C237.823 158.562 238.607 157.88 238.607 156.743C238.607 155.607 237.823 154.925 236.59 154.925H234.572V158.562H236.59Z" fill="#000041"></path><path d="M250.823 162.768H245.667L244.659 165.723H242.081L247.012 152.765H249.926L254.745 165.723H252.056L250.823 162.768ZM246.564 160.381H250.038L248.245 155.493L246.564 160.381Z" fill="#000041"></path><path d="M268.082 165.723V156.63L264.383 165.723H262.254L258.555 156.743V165.723H256.202V152.765H259.452L263.262 162.086L266.961 152.765H270.323V165.723H268.082Z" fill="#000041"></path><path d="M285.23 165.723V156.63L281.531 165.723H279.514L275.815 156.743V165.723H273.462V152.765H276.712L280.523 162.086L284.221 152.765H287.583V165.723H285.23Z" fill="#000041"></path><path d="M290.497 165.723V152.765H298.454V155.152H292.962V158.107H297.893V160.381H292.962V163.336H298.454V165.723H290.497V165.723Z" fill="#000041"></path><path d="M305.291 165.723V152.765H313.36V155.152H307.757V158.335H312.688V160.608H307.757V165.609H305.291V165.723Z" fill="#000041"></path><path d="M321.094 152.424C324.568 152.424 327.706 155.038 327.706 159.13C327.706 163.336 324.568 165.837 321.094 165.837C317.619 165.837 314.593 163.222 314.593 159.13C314.593 155.038 317.619 152.424 321.094 152.424ZM321.094 163.45C323.111 163.45 325.128 162.086 325.128 159.13C325.128 156.175 323.111 154.811 321.094 154.811C319.188 154.811 317.171 156.175 317.171 159.13C317.171 162.086 319.188 163.45 321.094 163.45Z" fill="#000041"></path><path d="M333.646 160.722H332.301V165.723H329.835V152.765H334.766C337.232 152.765 338.801 154.47 338.801 156.743C338.801 158.562 337.792 159.926 336.111 160.381L338.801 165.723H335.999L333.646 160.722ZM334.318 158.562C335.551 158.562 336.335 157.88 336.335 156.743C336.335 155.607 335.551 154.925 334.318 154.925H332.301V158.562H334.318Z" fill="#000041"></path><path d="M83.6074 182.773V169.815H88.2025C91.7889 169.815 94.4787 172.202 94.4787 176.294C94.4787 180.386 91.7889 182.773 88.2025 182.773H83.6074V182.773ZM88.0904 180.386C90.2198 180.386 91.9009 179.022 91.9009 176.294C91.9009 173.452 90.2198 172.202 88.0904 172.202H86.0731V180.499H88.0904V180.386Z" fill="#000041"></path><path d="M96.6074 182.773V169.815H104.565V172.202H99.0731V175.157H104.004V177.43H99.0731V180.386H104.565V182.773H96.6074V182.773Z" fill="#000041"></path><path d="M115.213 169.815H117.79L113.083 182.773H110.505L105.798 169.815H108.488L111.85 179.476L115.213 169.815Z" fill="#000041"></path><path d="M119.471 182.773V169.815H127.428V172.202H121.937V175.157H126.868V177.43H121.937V180.386H127.428V182.773H119.471V182.773Z" fill="#000041"></path><path d="M130.007 182.773V169.815H132.472V180.386H138.188V182.773H130.007Z" fill="#000041"></path><path d="M145.472 169.474C148.947 169.474 152.085 172.088 152.085 176.18C152.085 180.386 148.947 182.886 145.472 182.886C141.998 182.886 138.972 180.272 138.972 176.18C138.86 172.088 141.998 169.474 145.472 169.474ZM145.472 180.613C147.49 180.613 149.507 179.249 149.507 176.294C149.507 173.338 147.49 171.974 145.472 171.974C143.567 171.974 141.55 173.338 141.55 176.294C141.55 179.249 143.455 180.613 145.472 180.613Z" fill="#000041"></path><path d="M156.68 177.885V182.773H154.215V169.815H159.034C161.5 169.815 163.181 171.52 163.181 173.793C163.181 176.18 161.5 177.771 159.034 177.771H156.68V177.885ZM158.586 175.726C159.819 175.726 160.603 175.044 160.603 173.907C160.603 172.77 159.819 172.088 158.586 172.088H156.568V175.839H158.586V175.726Z" fill="#000041"></path><path d="M164.974 182.773V169.815H167.439V182.773H164.974Z" fill="#000041"></path><path d="M178.759 182.773L172.931 173.566V182.773H170.465V169.815H173.603L178.871 178.34V169.815H181.337V182.773H178.759Z" fill="#000041"></path><path d="M193.776 182.773L193.664 181.295C193.104 182.204 191.871 183 189.854 183C186.379 183 183.465 180.499 183.465 176.294C183.465 172.088 186.491 169.587 189.966 169.587C193.328 169.587 195.121 171.633 195.794 173.566L193.44 174.475C193.104 173.338 192.095 171.974 189.966 171.974C188.06 171.974 185.931 173.338 185.931 176.407C185.931 179.363 187.836 180.84 189.966 180.84C192.319 180.84 193.216 179.249 193.328 178.34H189.405V176.18H195.794V182.886H193.776V182.773Z" fill="#000041"></path><path d="M202.63 182.773V169.815H210.587V172.202H205.096V175.157H210.027V177.43H205.096V180.386H210.587V182.773H202.63V182.773Z" fill="#000041"></path><path d="M221.347 182.773L215.519 173.566V182.773H213.054V169.815H216.192L221.459 178.34V169.815H223.925V182.773H221.347Z" fill="#000041"></path><path d="M232.219 172.202V182.773H229.753V172.202H225.718V169.815H236.253V172.202H232.219Z" fill="#000041"></path><path d="M241.745 177.771H240.4V182.773H237.934V169.815H242.865C245.331 169.815 246.9 171.52 246.9 173.793C246.9 175.612 245.891 176.976 244.21 177.43L246.9 182.773H244.322L241.745 177.771ZM242.529 175.612C243.762 175.612 244.546 174.93 244.546 173.793C244.546 172.657 243.762 171.975 242.529 171.975H240.512V175.612H242.529Z" fill="#000041"></path><path d="M249.253 182.773V169.815H257.211V172.202H251.719V175.157H256.65V177.43H251.719V180.386H257.211V182.773H249.253V182.773Z" fill="#000041"></path><path d="M262.142 177.885V182.773H259.676V169.815H264.495C266.961 169.815 268.642 171.52 268.642 173.793C268.642 176.18 266.961 177.771 264.495 177.771H262.142V177.885ZM264.159 175.726C265.392 175.726 266.177 175.044 266.177 173.907C266.177 172.77 265.392 172.088 264.159 172.088H262.142V175.839H264.159V175.726Z" fill="#000041"></path><path d="M274.358 177.771H273.013V182.773H270.548V169.815H275.479C277.945 169.815 279.514 171.52 279.514 173.793C279.514 175.612 278.505 176.976 276.824 177.43L279.514 182.773H276.824L274.358 177.771ZM275.031 175.612C276.264 175.612 277.048 174.93 277.048 173.793C277.048 172.657 276.264 171.975 275.031 171.975H273.013V175.612H275.031Z" fill="#000041"></path><path d="M281.755 182.773V169.815H289.713V172.202H284.221V175.157H289.152V177.43H284.221V180.386H289.713V182.773H281.755V182.773Z" fill="#000041"></path><path d="M300.583 182.773L294.755 173.566V182.773H292.29V169.815H295.428L300.695 178.34V169.815H303.161V182.773H300.583Z" fill="#000041"></path><path d="M306.075 182.773V169.815H314.033V172.202H308.541V175.157H313.472V177.43H308.541V180.386H314.033V182.773H306.075V182.773Z" fill="#000041"></path><path d="M316.386 178.112V169.701H318.852V177.885C318.852 179.59 319.748 180.499 321.318 180.499C322.775 180.499 323.783 179.59 323.783 177.885V169.701H326.249V178.112C326.249 181.295 324.119 183 321.318 183C318.628 183 316.386 181.295 316.386 178.112Z" fill="#000041"></path><path d="M332.75 177.771H331.405V182.773H328.939V169.815H333.87C336.336 169.815 337.905 171.52 337.905 173.793C337.905 175.612 336.896 176.976 335.215 177.43L337.905 182.773H335.103L332.75 177.771ZM333.534 175.612C334.767 175.612 335.551 174.93 335.551 173.793C335.551 172.657 334.767 171.975 333.534 171.975H331.517V175.612H333.534Z" fill="#000041"></path><path d="M346.645 173.566C346.533 172.884 345.973 171.747 344.292 171.747C343.059 171.747 342.274 172.543 342.274 173.338C342.274 174.02 342.723 174.589 343.619 174.816L345.412 175.157C347.766 175.612 348.999 177.203 348.999 179.022C348.999 180.954 347.318 183 344.404 183C341.041 183 339.472 180.84 339.36 178.908L341.714 178.34C341.826 179.59 342.723 180.727 344.516 180.727C345.861 180.727 346.533 180.045 346.533 179.135C346.533 178.34 345.973 177.771 344.964 177.658L343.171 177.317C341.154 176.862 339.809 175.612 339.809 173.566C339.809 171.293 341.826 169.474 344.292 169.474C347.43 169.474 348.551 171.406 348.887 172.884L346.645 173.566Z" fill="#000041"></path></svg> 